<?xml version="1.0" encoding="UTF-8" standalone="no"?>
<svg xmlns="http://www.w3.org/2000/svg" viewBox="0 0 120 120" width="120" height="120">
  <!-- Pass the Joint token logo SVG representation inspired by poompit.jfif -->
  <defs>
    <linearGradient id="jointGradient" x1="0%" y1="0%" x2="100%" y2="100%">
      <stop offset="0%" stop-color="#7CB342" />
      <stop offset="100%" stop-color="#4CAF50" />
    </linearGradient>
    <filter id="glow" x="-50%" y="-50%" width="200%" height="200%">
      <feGaussianBlur stdDeviation="4" result="blur" />
      <feComposite in="SourceGraphic" in2="blur" operator="over" />
    </filter>
  </defs>
  
  <!-- Circular background -->
  <circle cx="60" cy="60" r="55" fill="url(#jointGradient)" />
  
  <!-- Rolled Joint symbol -->
  <g filter="url(#glow)">
    <!-- Joint paper/wrap -->
    <path d="M30 65 L85 45 L90 55 L35 75 Z" fill="#f5f5f5" />
    
    <!-- Burning tip/ember -->
    <circle cx="85" cy="50" r="10" fill="#FF5722" />
    <circle cx="85" cy="50" r="6" fill="#FFEB3B" />
    
    <!-- Smoke -->
    <path d="M90 45 Q95 40 100 42 Q105 44 100 38 Q95 32 105 30" stroke="#e0e0e0" stroke-width="3" fill="none" opacity="0.8" />
    <path d="M93 40 Q98 35 103 37 Q108 39 103 33" stroke="#e0e0e0" stroke-width="2" fill="none" opacity="0.6" />
  </g>
  
  <!-- Sparkle effect -->
  <g fill="#ffffff" opacity="0.7">
    <circle cx="35" cy="35" r="2" />
    <circle cx="85" cy="85" r="2" />
    <circle cx="35" cy="85" r="2" />
    <circle cx="25" cy="60" r="2" />
    <circle cx="60" cy="95" r="2" />
    <circle cx="60" cy="25" r="2" />
  </g>
</svg>