<svg width="500" height="300" xmlns="http://www.w3.org/2000/svg">
  <rect width="500" height="300" fill="white"/>
  <text x="10" y="20" font-family="Arial" font-size="14" fill="#333">Fantom Opera logo</text>
      <rect x="30" y="189.5717777217891" width="78" height="70.4282222782109" 
        fill="#f16196" opacity="0.7" stroke="#333" stroke-width="1" rx="2"/>
      <rect x="118" y="153.88764941781295" width="78" height="106.11235058218705" 
        fill="#f16196" opacity="0.7" stroke="#333" stroke-width="1" rx="2"/>
      <rect x="206" y="190.1979137462269" width="78" height="69.80208625377311" 
        fill="#f16196" opacity="0.7" stroke="#333" stroke-width="1" rx="2"/>
      <rect x="294" y="98.82363481005723" width="78" height="161.17636518994277" 
        fill="#f16196" opacity="0.7" stroke="#333" stroke-width="1" rx="2"/>
      <rect x="382" y="86.0144069428425" width="78" height="173.9855930571575" 
        fill="#f16196" opacity="0.7" stroke="#333" stroke-width="1" rx="2"/>
    <path d="M 69 189.5717777217891 L 157 153.88764941781295 L 245 190.1979137462269 L 333 98.82363481005723 L 421 86.0144069428425" fill="none" stroke="#2196F3" stroke-width="3"/>
      <circle cx="69" cy="189.5717777217891" r="4" fill="#2196F3" stroke="#333" stroke-width="1"/>
      <circle cx="157" cy="153.88764941781295" r="4" fill="#2196F3" stroke="#333" stroke-width="1"/>
      <circle cx="245" cy="190.1979137462269" r="4" fill="#2196F3" stroke="#333" stroke-width="1"/>
      <circle cx="333" cy="98.82363481005723" r="4" fill="#2196F3" stroke="#333" stroke-width="1"/>
      <circle cx="421" cy="86.0144069428425" r="4" fill="#2196F3" stroke="#333" stroke-width="1"/>
    <line x1="20" y1="260" x2="480" y2="260" stroke="#333" stroke-width="2"/>
    <line x1="20" y1="40" x2="20" y2="260" stroke="#333" stroke-width="2"/>
</svg>