<svg width="500" height="300" xmlns="http://www.w3.org/2000/svg">
  <rect width="500" height="300" fill="white"/>
  <text x="10" y="20" font-family="Arial" font-size="14" fill="#333">Candlestick chart with supply/demand zones and price action highlighted</text>
      <line x1="20" y1="205" x2="480" y2="205" stroke="#ddd" stroke-width="1" stroke-dasharray="4"/>
      <line x1="20" y1="150" x2="480" y2="150" stroke="#ddd" stroke-width="1" stroke-dasharray="4"/>
      <line x1="20" y1="95" x2="480" y2="95" stroke="#ddd" stroke-width="1" stroke-dasharray="4"/>
      <line x1="20" y1="40" x2="480" y2="40" stroke="#ddd" stroke-width="1" stroke-dasharray="4"/>
      <line x1="40" y1="208" x2="40" y2="260" 
        stroke="#333" stroke-width="1"/>
      <rect x="20" y="208" width="40" height="52" 
        fill="#4CAF50" stroke="#333" stroke-width="1"/>
      <line x1="86" y1="201" x2="86" y2="260" 
        stroke="#333" stroke-width="1"/>
      <rect x="66" y="201" width="40" height="59" 
        fill="#4CAF50" stroke="#333" stroke-width="1"/>
      <line x1="132" y1="207" x2="132" y2="260" 
        stroke="#333" stroke-width="1"/>
      <rect x="112" y="207" width="40" height="53" 
        fill="#4CAF50" stroke="#333" stroke-width="1"/>
      <line x1="178" y1="212" x2="178" y2="260" 
        stroke="#333" stroke-width="1"/>
      <rect x="158" y="220.5" width="40" height="31" 
        fill="#F44336" stroke="#333" stroke-width="1"/>
      <line x1="224" y1="166" x2="224" y2="260" 
        stroke="#333" stroke-width="1"/>
      <rect x="204" y="192.5" width="40" height="41" 
        fill="#4CAF50" stroke="#333" stroke-width="1"/>
      <line x1="270" y1="205" x2="270" y2="260" 
        stroke="#333" stroke-width="1"/>
      <rect x="250" y="205" width="40" height="55" 
        fill="#4CAF50" stroke="#333" stroke-width="1"/>
      <line x1="316" y1="244" x2="316" y2="260" 
        stroke="#333" stroke-width="1"/>
      <rect x="296" y="244" width="40" height="16" 
        fill="#4CAF50" stroke="#333" stroke-width="1"/>
      <line x1="362" y1="162" x2="362" y2="260" 
        stroke="#333" stroke-width="1"/>
      <rect x="342" y="203.5" width="40" height="15" 
        fill="#4CAF50" stroke="#333" stroke-width="1"/>
      <line x1="408" y1="245" x2="408" y2="260" 
        stroke="#333" stroke-width="1"/>
      <rect x="388" y="249.5" width="40" height="6" 
        fill="#4CAF50" stroke="#333" stroke-width="1"/>
      <line x1="454" y1="166" x2="454" y2="260" 
        stroke="#333" stroke-width="1"/>
      <rect x="434" y="189" width="40" height="48" 
        fill="#4CAF50" stroke="#333" stroke-width="1"/>
    <line x1="20" y1="260" x2="480" y2="260" stroke="#333" stroke-width="2"/>
</svg>