<svg width="500" height="300" xmlns="http://www.w3.org/2000/svg">
  <rect width="500" height="300" fill="white"/>
  <text x="10" y="20" font-family="Arial" font-size="14" fill="#333">Dune Analytics - Sonic TVL chart over time</text>
      <rect x="30" y="102.04401473696035" width="78" height="157.95598526303965" 
        fill="#f16196" opacity="0.7" stroke="#333" stroke-width="1" rx="2"/>
      <rect x="118" y="119.57589394196484" width="78" height="140.42410605803516" 
        fill="#f16196" opacity="0.7" stroke="#333" stroke-width="1" rx="2"/>
      <rect x="206" y="146.0936323743154" width="78" height="113.90636762568461" 
        fill="#f16196" opacity="0.7" stroke="#333" stroke-width="1" rx="2"/>
      <rect x="294" y="188.9253682384307" width="78" height="71.0746317615693" 
        fill="#f16196" opacity="0.7" stroke="#333" stroke-width="1" rx="2"/>
      <rect x="382" y="85.70538000863266" width="78" height="174.29461999136734" 
        fill="#f16196" opacity="0.7" stroke="#333" stroke-width="1" rx="2"/>
    <path d="M 69 102.04401473696035 L 157 119.57589394196484 L 245 146.0936323743154 L 333 188.9253682384307 L 421 85.70538000863266" fill="none" stroke="#2196F3" stroke-width="3"/>
      <circle cx="69" cy="102.04401473696035" r="4" fill="#2196F3" stroke="#333" stroke-width="1"/>
      <circle cx="157" cy="119.57589394196484" r="4" fill="#2196F3" stroke="#333" stroke-width="1"/>
      <circle cx="245" cy="146.0936323743154" r="4" fill="#2196F3" stroke="#333" stroke-width="1"/>
      <circle cx="333" cy="188.9253682384307" r="4" fill="#2196F3" stroke="#333" stroke-width="1"/>
      <circle cx="421" cy="85.70538000863266" r="4" fill="#2196F3" stroke="#333" stroke-width="1"/>
    <line x1="20" y1="260" x2="480" y2="260" stroke="#333" stroke-width="2"/>
    <line x1="20" y1="40" x2="20" y2="260" stroke="#333" stroke-width="2"/>
</svg>