<svg width="500" height="300" xmlns="http://www.w3.org/2000/svg">
  <rect width="500" height="300" fill="white"/>
  <text x="10" y="20" font-family="Arial" font-size="14" fill="#333">Sonic TVL and DEX volume growth charts over time</text>
      <rect x="30" y="174.93310603034496" width="78" height="85.06689396965504" 
        fill="#f16196" opacity="0.7" stroke="#333" stroke-width="1" rx="2"/>
      <rect x="118" y="162.67417671109794" width="78" height="97.32582328890206" 
        fill="#f16196" opacity="0.7" stroke="#333" stroke-width="1" rx="2"/>
      <rect x="206" y="175.11624788403873" width="78" height="84.88375211596126" 
        fill="#f16196" opacity="0.7" stroke="#333" stroke-width="1" rx="2"/>
      <rect x="294" y="134.18959406042853" width="78" height="125.81040593957147" 
        fill="#f16196" opacity="0.7" stroke="#333" stroke-width="1" rx="2"/>
      <rect x="382" y="181.47735600468013" width="78" height="78.52264399531987" 
        fill="#f16196" opacity="0.7" stroke="#333" stroke-width="1" rx="2"/>
    <path d="M 69 174.93310603034496 L 157 162.67417671109794 L 245 175.11624788403873 L 333 134.18959406042853 L 421 181.47735600468013" fill="none" stroke="#2196F3" stroke-width="3"/>
      <circle cx="69" cy="174.93310603034496" r="4" fill="#2196F3" stroke="#333" stroke-width="1"/>
      <circle cx="157" cy="162.67417671109794" r="4" fill="#2196F3" stroke="#333" stroke-width="1"/>
      <circle cx="245" cy="175.11624788403873" r="4" fill="#2196F3" stroke="#333" stroke-width="1"/>
      <circle cx="333" cy="134.18959406042853" r="4" fill="#2196F3" stroke="#333" stroke-width="1"/>
      <circle cx="421" cy="181.47735600468013" r="4" fill="#2196F3" stroke="#333" stroke-width="1"/>
    <line x1="20" y1="260" x2="480" y2="260" stroke="#333" stroke-width="2"/>
    <line x1="20" y1="40" x2="20" y2="260" stroke="#333" stroke-width="2"/>
</svg>