<svg width="500" height="300" xmlns="http://www.w3.org/2000/svg">
  <rect width="500" height="300" fill="white"/>
  <text x="10" y="20" font-family="Arial" font-size="14" fill="#333">crypto news headlines for SONIC token</text>
      <rect x="30" y="136.0226690650976" width="78" height="123.9773309349024" 
        fill="#f16196" opacity="0.7" stroke="#333" stroke-width="1" rx="2"/>
      <rect x="118" y="167.16155235756216" width="78" height="92.83844764243784" 
        fill="#f16196" opacity="0.7" stroke="#333" stroke-width="1" rx="2"/>
      <rect x="206" y="88.58955366314711" width="78" height="171.41044633685289" 
        fill="#f16196" opacity="0.7" stroke="#333" stroke-width="1" rx="2"/>
      <rect x="294" y="109.07537529093844" width="78" height="150.92462470906156" 
        fill="#f16196" opacity="0.7" stroke="#333" stroke-width="1" rx="2"/>
      <rect x="382" y="113.89356523117152" width="78" height="146.10643476882848" 
        fill="#f16196" opacity="0.7" stroke="#333" stroke-width="1" rx="2"/>
    <path d="M 69 136.0226690650976 L 157 167.16155235756216 L 245 88.58955366314711 L 333 109.07537529093844 L 421 113.89356523117152" fill="none" stroke="#2196F3" stroke-width="3"/>
      <circle cx="69" cy="136.0226690650976" r="4" fill="#2196F3" stroke="#333" stroke-width="1"/>
      <circle cx="157" cy="167.16155235756216" r="4" fill="#2196F3" stroke="#333" stroke-width="1"/>
      <circle cx="245" cy="88.58955366314711" r="4" fill="#2196F3" stroke="#333" stroke-width="1"/>
      <circle cx="333" cy="109.07537529093844" r="4" fill="#2196F3" stroke="#333" stroke-width="1"/>
      <circle cx="421" cy="113.89356523117152" r="4" fill="#2196F3" stroke="#333" stroke-width="1"/>
    <line x1="20" y1="260" x2="480" y2="260" stroke="#333" stroke-width="2"/>
    <line x1="20" y1="40" x2="20" y2="260" stroke="#333" stroke-width="2"/>
</svg>